<svg width="818" height="409" viewBox="0 0 818 409" fill="none" xmlns="http://www.w3.org/2000/svg">
<rect width="818" height="408" rx="204" fill="white"/>
<path d="M457.2 285C446 285 436.6 282.133 429 276.4C421.533 270.667 416.2 262.667 413 252.4L439.8 246C440.333 249.733 442.2 252.933 445.4 255.6C448.733 258.267 452.267 259.6 456 259.6C458.8 259.6 461.6 258.867 464.4 257.4C467.2 255.933 469.2 253.733 470.4 250.8C471.067 249.067 471.467 247 471.6 244.6C471.867 242.2 472 238.667 472 234V138H499.6V234V242.4C499.6 247.467 499.267 251.6 498.6 254.8C498.067 258 496.8 261.333 494.8 264.8C490.8 271.733 485.6 276.867 479.2 280.2C472.8 283.4 465.467 285 457.2 285ZM606.233 282L597.033 252H542.833L533.633 282H505.633L549.633 138H590.233L634.233 282H606.233ZM550.433 226.6H589.233L569.633 163.4L550.433 226.6ZM665.442 223.4L616.242 138H648.042L679.242 192.2L710.442 138H742.242L693.042 223.4V282H665.442V223.4Z" fill="#FF4E4E"/>
<rect y="1" width="373" height="408" rx="186.5" fill="#7DC1C6"/>
<path d="M372.5 177.5C364.935 131.389 379.602 75.9055 408.002 45.4973C452.002 -1.61356 497.832 0.996698 468.502 0.997289C340.5 0.999866 213.254 -0.58042 184.039 1.60935C152.581 16.9455 380.065 223.611 372.5 177.5Z" fill="#7DC1C6"/>
<path d="M222.558 160.047C247.167 160.047 267.116 140.561 267.116 116.523C267.116 92.4861 247.167 73 222.558 73C197.949 73 178 92.4861 178 116.523C178 140.561 197.949 160.047 222.558 160.047Z" fill="white"/>
</svg>
